<svg xmlns="http://www.w3.org/2000/svg" xmlns:xlink="http://www.w3.org/1999/xlink" version="1.1" x="0px" y="0px" viewBox="0 0 100 125" enable-background="new 0 0 100 100" xml:space="preserve"><g><path d="M89.2,60.8c-4.5,0-6.6-5.3-8.6-10.4c-1.8-4.5-3.6-9.1-6.8-9.1s-5,4.6-6.8,9.1c-2,5.1-4.1,10.4-8.6,10.4s-6.6-5.3-8.6-10.4   c-1.8-4.5-3.6-9.1-6.8-9.1s-5,4.6-6.8,9.1c-2,5.1-4.1,10.4-8.6,10.4c-4.5,0-6.6-5.3-8.6-10.4c-1.8-4.5-3.6-9.1-6.8-9.1   c-0.6,0-1-0.4-1-1s0.4-1,1-1c4.5,0,6.6,5.3,8.6,10.4c1.8,4.5,3.6,9.1,6.8,9.1c3.2,0,5-4.6,6.8-9.1c2-5.1,4.1-10.4,8.6-10.4   s6.6,5.3,8.6,10.4c1.8,4.5,3.6,9.1,6.8,9.1c3.2,0,5-4.6,6.8-9.1c2-5.1,4.1-10.4,8.6-10.4s6.6,5.3,8.6,10.4c1.8,4.5,3.6,9.1,6.8,9.1   c0.6,0,1,0.4,1,1S89.8,60.8,89.2,60.8z"/></g><text x="0" y="115" fill="#000000" font-size="5px" font-weight="bold" font-family="'Helvetica Neue', Helvetica, Arial-Unicode, Arial, Sans-serif">Created by Aurélien Lemesre</text><text x="0" y="120" fill="#000000" font-size="5px" font-weight="bold" font-family="'Helvetica Neue', Helvetica, Arial-Unicode, Arial, Sans-serif">from the Noun Project</text></svg>