<svg xmlns="http://www.w3.org/2000/svg" xmlns:xlink="http://www.w3.org/1999/xlink" viewBox="0 0 54 67.5" version="1.1"
     x="0px" y="0px">
    <title>Gear</title>
    <desc>Created with Sketch.</desc>
    <g stroke="none" stroke-width="1" fill="none" fill-rule="evenodd">
        <g transform="translate(-2737.000000, -156.000000)" stroke="#000000" stroke-width="2.5">
            <g transform="translate(2738.000000, 157.000000)">
                <path d="M17.5834672,40.9268402 C18.7321387,41.5731752 19.9625989,42.0912998 21.2554413,42.4618076 L21.2554413,49.2295784 C21.2554413,50.3203133 22.1512312,51.2228058 23.256244,51.2228058 L28.743756,51.2228058 C29.8518456,51.2228058 30.7445587,50.3304075 30.7445587,49.2295784 L30.7445587,42.4618076 C31.9798449,42.1077945 33.1581796,41.6190156 34.2626346,41.012399 L39.2701896,46.019954 C40.0485933,46.7983577 41.3108577,46.7981351 42.0943954,46.0145974 L45.9746522,42.1343405 C46.7560143,41.3529784 46.7512749,40.0814007 45.9800089,39.3101347 L41.0019785,34.3321044 C41.6440002,33.1873062 42.1587789,31.9615304 42.5271543,30.6739373 L49.3380607,30.6739373 C50.4287956,30.6739373 51.3312881,29.7781474 51.3312881,28.6731345 L51.3312881,23.1856226 C51.3312881,22.077533 50.4388898,21.1848199 49.3380607,21.1848199 L42.522918,21.1848199 C42.1525548,19.8946787 41.6351738,18.6667192 40.9900705,17.5202368 L45.9783705,12.5319369 C46.7536654,11.756642 46.7560143,10.4874548 45.9746522,9.70609269 L42.0943954,5.82583581 C41.3108577,5.04229811 40.0478597,5.04280901 39.2685512,5.82211757 L34.2412526,10.8494161 C33.1429756,10.2482236 31.9718767,9.76346123 30.7445587,9.41173169 L30.7445587,2.86676658 C30.7445587,1.77603174 29.8487688,0.873539246 28.743756,0.873539246 L23.256244,0.873539246 C22.1481544,0.873539246 21.2554413,1.76593752 21.2554413,2.86676658 L21.2554413,9.41173169 C19.9705483,9.77996129 18.7472727,10.293998 17.6046653,10.9347911 L12.4977899,5.82791577 C11.7152791,5.04540495 10.4496853,5.04229811 9.66614756,5.82583581 L5.78589068,9.70609269 C5.00452859,10.4874548 5.00676682,11.7565313 5.78797064,12.5377351 L10.9243706,17.6741351 C10.3177541,18.7785901 9.82897515,19.9569247 9.47496207,21.1922109 L2.92999696,21.1922109 C1.83926211,21.1922109 0.936769623,22.0880008 0.936769623,23.1930137 L0.936769623,28.6805256 C0.936769623,29.7886152 1.8291679,30.6813284 2.92999696,30.6813284 L9.47496207,30.6813284 C9.8266916,31.9086464 10.311454,33.0797452 10.9126465,34.1780223 L5.78053403,39.3101347 C5.00926803,40.0814007 5.00452859,41.3529784 5.78589068,42.1343405 L9.66614756,46.0145974 C10.4496853,46.7981351 11.7119496,46.7983577 12.4903533,46.019954 L17.5834672,40.9268402 Z"/>
                <circle cx="25.8711095" cy="25.9293786" r="8.25"/>
            </g>
        </g>
    </g>
    <text x="0" y="69" fill="#000000" font-size="5px" font-weight="bold"
          font-family="'Helvetica Neue', Helvetica, Arial-Unicode, Arial, Sans-serif">Created by Kevin
    </text>
    <text x="0" y="74" fill="#000000" font-size="5px" font-weight="bold"
          font-family="'Helvetica Neue', Helvetica, Arial-Unicode, Arial, Sans-serif">from the Noun Project
    </text>
</svg>